<svg width="279" height="168" viewBox="0 0 279 168" fill="none" xmlns="http://www.w3.org/2000/svg">
<g clip-path="url(#clip0_1_5)">
<rect x="96.5" y="1.5" width="75" height="29" fill="#FF0000" stroke="black" stroke-width="3"/>
<rect y="68" width="78" height="32" fill="black"/>
<rect y="136" width="78" height="32" fill="black"/>
<rect x="97" y="136" width="78" height="32" fill="black"/>
<rect x="202" y="136" width="78" height="32" fill="black"/>
<rect x="202" y="68" width="78" height="32" fill="black"/>
<path d="M119.375 18.6367C118.82 18.9375 118.318 19.0879 117.869 19.0879C117.42 19.0879 117.035 19.0469 116.715 18.9648C116.395 18.8789 116.123 18.7539 115.9 18.5898C115.447 18.2578 115.221 17.7773 115.221 17.1484C115.221 16.5859 115.498 16.1172 116.053 15.7422C116.654 15.3359 117.471 15.1328 118.502 15.1328L118.736 15.1387C118.783 15.1426 118.836 15.1465 118.895 15.1504C118.953 15.1504 119.006 15.1543 119.053 15.1621C119.021 14.5371 118.752 14.1719 118.244 14.0664C118.076 14.0312 117.896 14.0137 117.705 14.0137C117.518 14.0137 117.332 14.0312 117.148 14.0664C116.969 14.0977 116.793 14.1406 116.621 14.1953C116.242 14.3164 115.971 14.4551 115.807 14.6113L115.789 14.5996L115.613 13.3047C116.305 12.9414 117.061 12.7598 117.881 12.7598C119.154 12.7598 119.969 13.2188 120.324 14.1367C120.438 14.4297 120.494 14.7598 120.494 15.127V17.248C120.494 17.7012 120.654 18.0098 120.975 18.1738L119.914 19.1465C119.691 19.0293 119.512 18.8594 119.375 18.6367ZM119.059 16.2168C118.953 16.1973 118.844 16.1875 118.73 16.1875H118.496C117.633 16.1875 117.084 16.3789 116.85 16.7617C116.779 16.875 116.744 16.9941 116.744 17.1191C116.744 17.2441 116.766 17.3555 116.809 17.4531C116.855 17.5469 116.932 17.625 117.037 17.6875C117.24 17.8047 117.541 17.8633 117.939 17.8633C118.342 17.8633 118.717 17.7676 119.064 17.5762C119.061 17.5332 119.059 17.4883 119.059 17.4414V16.2168ZM127.115 18.4316C126.678 18.8691 125.992 19.0879 125.059 19.0879C124.152 19.0879 123.412 18.8125 122.838 18.2617C122.256 17.7031 121.965 16.9609 121.965 16.0352C121.965 15.0938 122.252 14.3203 122.826 13.7148C123.436 13.0781 124.25 12.7598 125.27 12.7598C125.992 12.7598 126.598 12.918 127.086 13.2344L126.852 14.7344L126.811 14.7285C126.623 14.502 126.426 14.3535 126.219 14.2832C125.883 14.166 125.547 14.1074 125.211 14.1074C124.875 14.1074 124.611 14.1504 124.42 14.2363C124.229 14.3223 124.064 14.4414 123.928 14.5938C123.654 14.9062 123.518 15.3203 123.518 15.8359C123.518 16.75 123.834 17.3477 124.467 17.6289C124.686 17.7227 124.916 17.7695 125.158 17.7695C125.404 17.7695 125.617 17.748 125.797 17.7051C125.98 17.6621 126.146 17.6035 126.295 17.5293C126.611 17.373 126.826 17.1914 126.939 16.9844L126.98 17.002L127.115 18.4316ZM133.127 18.4316C132.689 18.8691 132.004 19.0879 131.07 19.0879C130.164 19.0879 129.424 18.8125 128.85 18.2617C128.268 17.7031 127.977 16.9609 127.977 16.0352C127.977 15.0938 128.264 14.3203 128.838 13.7148C129.447 13.0781 130.262 12.7598 131.281 12.7598C132.004 12.7598 132.609 12.918 133.098 13.2344L132.863 14.7344L132.822 14.7285C132.635 14.502 132.438 14.3535 132.23 14.2832C131.895 14.166 131.559 14.1074 131.223 14.1074C130.887 14.1074 130.623 14.1504 130.432 14.2363C130.24 14.3223 130.076 14.4414 129.939 14.5938C129.666 14.9062 129.529 15.3203 129.529 15.8359C129.529 16.75 129.846 17.3477 130.479 17.6289C130.697 17.7227 130.928 17.7695 131.17 17.7695C131.416 17.7695 131.629 17.748 131.809 17.7051C131.992 17.6621 132.158 17.6035 132.307 17.5293C132.623 17.373 132.838 17.1914 132.951 16.9844L132.992 17.002L133.127 18.4316ZM138.02 18.4668C137.52 18.8809 136.975 19.0879 136.385 19.0879C135.752 19.0879 135.256 18.875 134.896 18.4492C134.553 18.0352 134.381 17.4668 134.381 16.7441V14.418C134.381 13.6367 134.363 13.1895 134.328 13.0762C134.297 12.959 134.273 12.8848 134.258 12.8535C134.438 12.8691 134.625 12.877 134.82 12.877H135.307C135.436 12.877 135.605 12.8711 135.816 12.8594V16.252C135.816 17.0566 136.035 17.5234 136.473 17.6523C136.605 17.6914 136.75 17.7109 136.906 17.7109C137.367 17.7109 137.738 17.543 138.02 17.207V12.877H139.473V18.25C139.473 18.5938 139.488 18.8438 139.52 19H138.02V18.4668ZM141.055 15.9883C141.055 15.5312 141.133 15.1074 141.289 14.7168C141.445 14.3262 141.666 13.9844 141.951 13.6914C142.561 13.0703 143.357 12.7598 144.342 12.7598C145.174 12.7598 145.842 13.0352 146.346 13.5859C146.842 14.1172 147.09 14.7852 147.09 15.5898C147.09 15.8984 147.066 16.1094 147.02 16.2227C146.629 16.332 145.834 16.3867 144.635 16.3867H142.572C142.674 16.8047 142.91 17.1309 143.281 17.3652C143.652 17.5957 144.135 17.7109 144.729 17.7109C145.35 17.7109 145.883 17.5996 146.328 17.377C146.445 17.3184 146.533 17.2637 146.592 17.2129C146.584 17.377 146.574 17.5449 146.562 17.7168L146.498 18.6309C146.201 18.834 145.721 18.9746 145.057 19.0527C144.861 19.0762 144.674 19.0879 144.494 19.0879C143.502 19.0879 142.682 18.7988 142.033 18.2207C141.381 17.6387 141.055 16.8945 141.055 15.9883ZM145.531 15.25C145.371 14.4102 144.914 13.9902 144.16 13.9902C143.566 13.9902 143.115 14.2461 142.807 14.7578C142.713 14.9141 142.641 15.0859 142.59 15.2734C142.684 15.2773 142.799 15.2812 142.936 15.2852H143.369C143.514 15.2891 143.652 15.291 143.785 15.291H144.119C144.318 15.291 144.514 15.2891 144.705 15.2852L145.186 15.2676C145.314 15.2637 145.43 15.2578 145.531 15.25ZM148.18 11.1309C148.492 10.6426 148.818 10.2129 149.158 9.8418L150.418 10.832C150.25 11.0391 150.094 11.2422 149.949 11.4414C149.949 11.4414 149.799 11.6543 149.498 12.0801L148.18 11.1309ZM149.721 18.3438C149.721 18.6797 149.729 18.8984 149.744 19H148.256V12.877H149.721V18.3438ZM152.738 18.3438C152.738 18.6797 152.746 18.8984 152.762 19H151.273V10.2695H152.738V18.3438Z" fill="white"/>
<path d="M11.8262 86.877V88.5996C11.8262 88.9355 11.834 89.1543 11.8496 89.2559H10.3906V80.877H11.8262V81.2578C12.2988 80.9258 12.752 80.7598 13.1855 80.7598C13.6191 80.7598 14.0039 80.8203 14.3398 80.9414C14.6758 81.0625 14.9707 81.25 15.2246 81.5039C15.7832 82.0547 16.0625 82.8398 16.0625 83.8594C16.0625 84.5352 15.9043 85.1387 15.5879 85.6699C15.3184 86.1191 14.9453 86.4785 14.4688 86.748C14.0469 86.9863 13.5898 87.1055 13.0977 87.1055C12.6055 87.1055 12.1816 87.0293 11.8262 86.877ZM11.8262 85.4004C12.123 85.6504 12.5078 85.7754 12.9805 85.7754C13.7539 85.7754 14.2539 85.4023 14.4805 84.6562C14.5586 84.4023 14.5977 84.1309 14.5977 83.8418C14.5977 83.5488 14.5703 83.3164 14.5156 83.1445C14.4609 82.9688 14.3887 82.8184 14.2988 82.6934C14.2129 82.5645 14.1152 82.459 14.0059 82.377C13.8965 82.291 13.7852 82.2227 13.6719 82.1719C13.4727 82.082 13.2676 82.0371 13.0566 82.0371C12.8457 82.0371 12.627 82.0859 12.4004 82.1836C12.1738 82.2812 11.9824 82.4121 11.8262 82.5762V85.4004ZM18.6816 86.3438C18.6816 86.6797 18.6895 86.8984 18.7051 87H17.2461V80.877H18.6816V81.3281C19.0137 80.9492 19.3613 80.7598 19.7246 80.7598C20.0918 80.7598 20.3809 80.8047 20.5918 80.8945L20.4863 82.4707L20.4629 82.4883C20.3262 82.2461 20.043 82.125 19.6133 82.125C19.4492 82.125 19.2812 82.1816 19.1094 82.2949C18.9414 82.4043 18.7988 82.5508 18.6816 82.7344V86.3438ZM20.8613 83.9707C20.8613 83.541 20.9336 83.1309 21.0781 82.7402C21.2266 82.3457 21.4375 82.002 21.7109 81.709C22.3086 81.0762 23.084 80.7598 24.0371 80.7598C24.9863 80.7598 25.7402 81.0586 26.2988 81.6562C26.834 82.2266 27.1016 82.9668 27.1016 83.877C27.1016 84.7871 26.8262 85.541 26.2754 86.1387C25.6934 86.7715 24.9219 87.0879 23.9609 87.0879C22.9688 87.0879 22.1914 86.7773 21.6289 86.1562C21.1172 85.5898 20.8613 84.8613 20.8613 83.9707ZM22.2852 83.9355C22.2852 84.1816 22.3262 84.4199 22.4082 84.6504C22.4902 84.8809 22.6074 85.0781 22.7598 85.2422C23.084 85.5977 23.5098 85.7754 24.0371 85.7754C24.5254 85.7754 24.9102 85.6016 25.1914 85.2539C25.4648 84.918 25.6016 84.4805 25.6016 83.9414C25.6016 83.3945 25.4609 82.9531 25.1797 82.6172C24.8789 82.2578 24.4668 82.0781 23.9434 82.0781C23.4121 82.0781 22.9961 82.2695 22.6953 82.6523C22.4219 83.0039 22.2852 83.4316 22.2852 83.9355ZM32.5273 86.6719C32.0312 86.9492 31.5352 87.0879 31.0391 87.0879C30.543 87.0879 30.1094 87.0098 29.7383 86.8535C29.3672 86.6973 29.0508 86.4824 28.7891 86.209C28.25 85.6465 27.9805 84.916 27.9805 84.0176C27.9805 83.0879 28.293 82.3145 28.918 81.6973C29.5469 81.0723 30.3516 80.7598 31.332 80.7598C31.6328 80.7598 31.9277 80.7988 32.2168 80.877V78.2695H33.6523V84.5332C33.6523 85.0527 33.6758 85.3926 33.7227 85.5527C33.7734 85.7129 33.8281 85.8301 33.8867 85.9043C33.9492 85.9785 34.0273 86.0488 34.1211 86.1152L33.0195 87.0879C32.8164 86.9785 32.6523 86.8398 32.5273 86.6719ZM31.3145 85.7402C31.6426 85.7402 31.9434 85.6777 32.2168 85.5527V82.3066C31.9434 82.1934 31.6465 82.1367 31.3262 82.1367C31.0059 82.1367 30.7305 82.1797 30.5 82.2656C30.2734 82.3516 30.0781 82.4707 29.9141 82.623C29.5703 82.9434 29.3984 83.3594 29.3984 83.8711C29.3984 84.4297 29.5547 84.875 29.8672 85.207C30.2031 85.5625 30.6855 85.7402 31.3145 85.7402ZM39.0137 86.4668C38.5137 86.8809 37.9688 87.0879 37.3789 87.0879C36.7461 87.0879 36.25 86.875 35.8906 86.4492C35.5469 86.0352 35.375 85.4668 35.375 84.7441V82.418C35.375 81.6367 35.3574 81.1895 35.3223 81.0762C35.291 80.959 35.2676 80.8848 35.252 80.8535C35.4316 80.8691 35.6191 80.877 35.8145 80.877H36.3008C36.4297 80.877 36.5996 80.8711 36.8105 80.8594V84.252C36.8105 85.0566 37.0293 85.5234 37.4668 85.6523C37.5996 85.6914 37.7441 85.7109 37.9004 85.7109C38.3613 85.7109 38.7324 85.543 39.0137 85.207V80.877H40.4668V86.25C40.4668 86.5938 40.4824 86.8438 40.5137 87H39.0137V86.4668ZM47.1289 86.4316C46.6914 86.8691 46.0059 87.0879 45.0723 87.0879C44.166 87.0879 43.4258 86.8125 42.8516 86.2617C42.2695 85.7031 41.9785 84.9609 41.9785 84.0352C41.9785 83.0938 42.2656 82.3203 42.8398 81.7148C43.4492 81.0781 44.2637 80.7598 45.2832 80.7598C46.0059 80.7598 46.6113 80.918 47.0996 81.2344L46.8652 82.7344L46.8242 82.7285C46.6367 82.502 46.4395 82.3535 46.2324 82.2832C45.8965 82.166 45.5605 82.1074 45.2246 82.1074C44.8887 82.1074 44.625 82.1504 44.4336 82.2363C44.2422 82.3223 44.0781 82.4414 43.9414 82.5938C43.668 82.9062 43.5312 83.3203 43.5312 83.8359C43.5312 84.75 43.8477 85.3477 44.4805 85.6289C44.6992 85.7227 44.9297 85.7695 45.1719 85.7695C45.418 85.7695 45.6309 85.748 45.8105 85.7051C45.9941 85.6621 46.1602 85.6035 46.3086 85.5293C46.625 85.373 46.8398 85.1914 46.9531 84.9844L46.9941 85.002L47.1289 86.4316ZM51.0723 85.7109C51.5762 85.7109 51.9219 85.5801 52.1094 85.3184H52.1562L52.1738 86.6777C51.9824 86.8691 51.627 86.9961 51.1074 87.0586C50.9668 87.0781 50.791 87.0879 50.5801 87.0879C50.373 87.0879 50.1465 87.0488 49.9004 86.9707C49.6582 86.8926 49.4512 86.7656 49.2793 86.5898C48.9238 86.2266 48.7461 85.6582 48.7461 84.8848V82.2246H47.8613C47.8574 82.1113 47.8555 81.9961 47.8555 81.8789V80.9766C47.8555 80.9102 47.8574 80.877 47.8613 80.877H48.7461V79.207H50.1816V80.877H51.793V82.2246H50.1816V84.6152C50.1816 85.2285 50.3516 85.5781 50.6914 85.6641C50.8008 85.6953 50.9277 85.7109 51.0723 85.7109ZM53.1816 79.1309C53.4941 78.6426 53.8203 78.2129 54.1602 77.8418L55.4199 78.832C55.252 79.0391 55.0957 79.2422 54.9512 79.4414C54.9512 79.4414 54.8008 79.6543 54.5 80.0801L53.1816 79.1309ZM54.7227 86.3438C54.7227 86.6797 54.7305 86.8984 54.7461 87H53.2578V80.877H54.7227V86.3438ZM55.9355 83.9707C55.9355 83.541 56.0078 83.1309 56.1523 82.7402C56.3008 82.3457 56.5117 82.002 56.7852 81.709C57.3828 81.0762 58.1582 80.7598 59.1113 80.7598C60.0605 80.7598 60.8145 81.0586 61.373 81.6562C61.9082 82.2266 62.1758 82.9668 62.1758 83.877C62.1758 84.7871 61.9004 85.541 61.3496 86.1387C60.7676 86.7715 59.9961 87.0879 59.0352 87.0879C58.043 87.0879 57.2656 86.7773 56.7031 86.1562C56.1914 85.5898 55.9355 84.8613 55.9355 83.9707ZM57.3594 83.9355C57.3594 84.1816 57.4004 84.4199 57.4824 84.6504C57.5645 84.8809 57.6816 85.0781 57.834 85.2422C58.1582 85.5977 58.584 85.7754 59.1113 85.7754C59.5996 85.7754 59.9844 85.6016 60.2656 85.2539C60.5391 84.918 60.6758 84.4805 60.6758 83.9414C60.6758 83.3945 60.5352 82.9531 60.2539 82.6172C59.9531 82.2578 59.541 82.0781 59.0176 82.0781C58.4863 82.0781 58.0703 82.2695 57.7695 82.6523C57.4961 83.0039 57.3594 83.4316 57.3594 83.9355ZM64.9414 86.25C64.9414 86.5938 64.957 86.8438 64.9883 87H63.5176V80.877H64.9414V81.3984C65.457 80.9727 66.0078 80.7598 66.5938 80.7598C67.2344 80.7598 67.7461 80.9785 68.1289 81.416C68.5117 81.8496 68.7031 82.4219 68.7031 83.1328V85.4648C68.7031 86.125 68.7129 86.5215 68.7324 86.6543C68.752 86.7871 68.7773 86.873 68.8086 86.9121C68.8438 86.9512 68.873 86.9863 68.8965 87.0176L68.8848 87.041C68.5684 87.0137 68.3379 87 68.1934 87H67.7832C67.6582 87 67.4902 87.0059 67.2793 87.0176V83.8242C67.2793 82.6797 66.9316 82.1074 66.2363 82.1074C65.7207 82.1074 65.2891 82.373 64.9414 82.9043V86.25Z" fill="white"/>
<path d="M14.0762 154.432C13.6387 154.869 12.9531 155.088 12.0195 155.088C11.1133 155.088 10.373 154.812 9.79883 154.262C9.2168 153.703 8.92578 152.961 8.92578 152.035C8.92578 151.094 9.21289 150.32 9.78711 149.715C10.3965 149.078 11.2109 148.76 12.2305 148.76C12.9531 148.76 13.5586 148.918 14.0469 149.234L13.8125 150.734L13.7715 150.729C13.584 150.502 13.3867 150.354 13.1797 150.283C12.8438 150.166 12.5078 150.107 12.1719 150.107C11.8359 150.107 11.5723 150.15 11.3809 150.236C11.1895 150.322 11.0254 150.441 10.8887 150.594C10.6152 150.906 10.4785 151.32 10.4785 151.836C10.4785 152.75 10.7949 153.348 11.4277 153.629C11.6465 153.723 11.877 153.77 12.1191 153.77C12.3652 153.77 12.5781 153.748 12.7578 153.705C12.9414 153.662 13.1074 153.604 13.2559 153.529C13.5723 153.373 13.7871 153.191 13.9004 152.984L13.9414 153.002L14.0762 154.432ZM14.8555 151.971C14.8555 151.541 14.9277 151.131 15.0723 150.74C15.2207 150.346 15.4316 150.002 15.7051 149.709C16.3027 149.076 17.0781 148.76 18.0312 148.76C18.9805 148.76 19.7344 149.059 20.293 149.656C20.8281 150.227 21.0957 150.967 21.0957 151.877C21.0957 152.787 20.8203 153.541 20.2695 154.139C19.6875 154.771 18.916 155.088 17.9551 155.088C16.9629 155.088 16.1855 154.777 15.623 154.156C15.1113 153.59 14.8555 152.861 14.8555 151.971ZM16.2793 151.936C16.2793 152.182 16.3203 152.42 16.4023 152.65C16.4844 152.881 16.6016 153.078 16.7539 153.242C17.0781 153.598 17.5039 153.775 18.0312 153.775C18.5195 153.775 18.9043 153.602 19.1855 153.254C19.459 152.918 19.5957 152.48 19.5957 151.941C19.5957 151.395 19.4551 150.953 19.1738 150.617C18.873 150.258 18.4609 150.078 17.9375 150.078C17.4062 150.078 16.9902 150.27 16.6895 150.652C16.416 151.004 16.2793 151.432 16.2793 151.936ZM23.8613 154.25C23.8613 154.594 23.877 154.844 23.9082 155H22.4375V148.877H23.8613V149.398C24.377 148.973 24.9277 148.76 25.5137 148.76C26.1543 148.76 26.666 148.979 27.0488 149.416C27.4316 149.85 27.623 150.422 27.623 151.133V153.465C27.623 154.125 27.6328 154.521 27.6523 154.654C27.6719 154.787 27.6973 154.873 27.7285 154.912C27.7637 154.951 27.793 154.986 27.8164 155.018L27.8047 155.041C27.4883 155.014 27.2578 155 27.1133 155H26.7031C26.5781 155 26.4102 155.006 26.1992 155.018V151.824C26.1992 150.68 25.8516 150.107 25.1562 150.107C24.6406 150.107 24.209 150.373 23.8613 150.904V154.25ZM34.127 154.432C33.6895 154.869 33.0039 155.088 32.0703 155.088C31.1641 155.088 30.4238 154.812 29.8496 154.262C29.2676 153.703 28.9766 152.961 28.9766 152.035C28.9766 151.094 29.2637 150.32 29.8379 149.715C30.4473 149.078 31.2617 148.76 32.2812 148.76C33.0039 148.76 33.6094 148.918 34.0977 149.234L33.8633 150.734L33.8223 150.729C33.6348 150.502 33.4375 150.354 33.2305 150.283C32.8945 150.166 32.5586 150.107 32.2227 150.107C31.8867 150.107 31.623 150.15 31.4316 150.236C31.2402 150.322 31.0762 150.441 30.9395 150.594C30.666 150.906 30.5293 151.32 30.5293 151.836C30.5293 152.75 30.8457 153.348 31.4785 153.629C31.6973 153.723 31.9277 153.77 32.1699 153.77C32.416 153.77 32.6289 153.748 32.8086 153.705C32.9922 153.662 33.1582 153.604 33.3066 153.529C33.623 153.373 33.8379 153.191 33.9512 152.984L33.9922 153.002L34.127 154.432ZM35.0586 151.988C35.0586 151.531 35.1367 151.107 35.293 150.717C35.4492 150.326 35.6699 149.984 35.9551 149.691C36.5645 149.07 37.3613 148.76 38.3457 148.76C39.1777 148.76 39.8457 149.035 40.3496 149.586C40.8457 150.117 41.0938 150.785 41.0938 151.59C41.0938 151.898 41.0703 152.109 41.0234 152.223C40.6328 152.332 39.8379 152.387 38.6387 152.387H36.5762C36.6777 152.805 36.9141 153.131 37.2852 153.365C37.6562 153.596 38.1387 153.711 38.7324 153.711C39.3535 153.711 39.8867 153.6 40.332 153.377C40.4492 153.318 40.5371 153.264 40.5957 153.213C40.5879 153.377 40.5781 153.545 40.5664 153.717L40.502 154.631C40.2051 154.834 39.7246 154.975 39.0605 155.053C38.8652 155.076 38.6777 155.088 38.498 155.088C37.5059 155.088 36.6855 154.799 36.0371 154.221C35.3848 153.639 35.0586 152.895 35.0586 151.988ZM39.5352 151.25C39.375 150.41 38.918 149.99 38.1641 149.99C37.5703 149.99 37.1191 150.246 36.8105 150.758C36.7168 150.914 36.6445 151.086 36.5938 151.273C36.6875 151.277 36.8027 151.281 36.9395 151.285H37.373C37.5176 151.289 37.6562 151.291 37.7891 151.291H38.123C38.3223 151.291 38.5176 151.289 38.709 151.285L39.1895 151.268C39.3184 151.264 39.4336 151.258 39.5352 151.25ZM43.8945 154.877V156.6C43.8945 156.936 43.9023 157.154 43.918 157.256H42.459V148.877H43.8945V149.258C44.3672 148.926 44.8203 148.76 45.2539 148.76C45.6875 148.76 46.0723 148.82 46.4082 148.941C46.7441 149.062 47.0391 149.25 47.293 149.504C47.8516 150.055 48.1309 150.84 48.1309 151.859C48.1309 152.535 47.9727 153.139 47.6562 153.67C47.3867 154.119 47.0137 154.479 46.5371 154.748C46.1152 154.986 45.6582 155.105 45.166 155.105C44.6738 155.105 44.25 155.029 43.8945 154.877ZM43.8945 153.4C44.1914 153.65 44.5762 153.775 45.0488 153.775C45.8223 153.775 46.3223 153.402 46.5488 152.656C46.627 152.402 46.666 152.131 46.666 151.842C46.666 151.549 46.6387 151.316 46.584 151.145C46.5293 150.969 46.457 150.818 46.3672 150.693C46.2812 150.564 46.1836 150.459 46.0742 150.377C45.9648 150.291 45.8535 150.223 45.7402 150.172C45.541 150.082 45.3359 150.037 45.125 150.037C44.9141 150.037 44.6953 150.086 44.4688 150.184C44.2422 150.281 44.0508 150.412 43.8945 150.576V153.4ZM52.0859 153.711C52.5898 153.711 52.9355 153.58 53.123 153.318H53.1699L53.1875 154.678C52.9961 154.869 52.6406 154.996 52.1211 155.059C51.9805 155.078 51.8047 155.088 51.5938 155.088C51.3867 155.088 51.1602 155.049 50.9141 154.971C50.6719 154.893 50.4648 154.766 50.293 154.59C49.9375 154.227 49.7598 153.658 49.7598 152.885V150.225H48.875C48.8711 150.111 48.8691 149.996 48.8691 149.879V148.977C48.8691 148.91 48.8711 148.877 48.875 148.877H49.7598V147.207H51.1953V148.877H52.8066V150.225H51.1953V152.615C51.1953 153.229 51.3652 153.578 51.7051 153.664C51.8145 153.695 51.9414 153.711 52.0859 153.711ZM54.1953 147.131C54.5078 146.643 54.834 146.213 55.1738 145.842L56.4336 146.832C56.2656 147.039 56.1094 147.242 55.9648 147.441C55.9648 147.441 55.8145 147.654 55.5137 148.08L54.1953 147.131ZM55.7363 154.344C55.7363 154.68 55.7441 154.898 55.7598 155H54.2715V148.877H55.7363V154.344ZM56.9492 151.971C56.9492 151.541 57.0215 151.131 57.166 150.74C57.3145 150.346 57.5254 150.002 57.7988 149.709C58.3965 149.076 59.1719 148.76 60.125 148.76C61.0742 148.76 61.8281 149.059 62.3867 149.656C62.9219 150.227 63.1895 150.967 63.1895 151.877C63.1895 152.787 62.9141 153.541 62.3633 154.139C61.7812 154.771 61.0098 155.088 60.0488 155.088C59.0566 155.088 58.2793 154.777 57.7168 154.156C57.2051 153.59 56.9492 152.861 56.9492 151.971ZM58.373 151.936C58.373 152.182 58.4141 152.42 58.4961 152.65C58.5781 152.881 58.6953 153.078 58.8477 153.242C59.1719 153.598 59.5977 153.775 60.125 153.775C60.6133 153.775 60.998 153.602 61.2793 153.254C61.5527 152.918 61.6895 152.48 61.6895 151.941C61.6895 151.395 61.5488 150.953 61.2676 150.617C60.9668 150.258 60.5547 150.078 60.0312 150.078C59.5 150.078 59.084 150.27 58.7832 150.652C58.5098 151.004 58.373 151.432 58.373 151.936ZM65.9551 154.25C65.9551 154.594 65.9707 154.844 66.002 155H64.5312V148.877H65.9551V149.398C66.4707 148.973 67.0215 148.76 67.6074 148.76C68.248 148.76 68.7598 148.979 69.1426 149.416C69.5254 149.85 69.7168 150.422 69.7168 151.133V153.465C69.7168 154.125 69.7266 154.521 69.7461 154.654C69.7656 154.787 69.791 154.873 69.8223 154.912C69.8574 154.951 69.8867 154.986 69.9102 155.018L69.8984 155.041C69.582 155.014 69.3516 155 69.207 155H68.7969C68.6719 155 68.5039 155.006 68.293 155.018V151.824C68.293 150.68 67.9453 150.107 67.25 150.107C66.7344 150.107 66.3027 150.373 65.9551 150.904V154.25Z" fill="white"/>
<path d="M110.084 154.432C109.646 154.869 108.961 155.088 108.027 155.088C107.121 155.088 106.381 154.812 105.807 154.262C105.225 153.703 104.934 152.961 104.934 152.035C104.934 151.094 105.221 150.32 105.795 149.715C106.404 149.078 107.219 148.76 108.238 148.76C108.961 148.76 109.566 148.918 110.055 149.234L109.82 150.734L109.779 150.729C109.592 150.502 109.395 150.354 109.188 150.283C108.852 150.166 108.516 150.107 108.18 150.107C107.844 150.107 107.58 150.15 107.389 150.236C107.197 150.322 107.033 150.441 106.896 150.594C106.623 150.906 106.486 151.32 106.486 151.836C106.486 152.75 106.803 153.348 107.436 153.629C107.654 153.723 107.885 153.77 108.127 153.77C108.373 153.77 108.586 153.748 108.766 153.705C108.949 153.662 109.115 153.604 109.264 153.529C109.58 153.373 109.795 153.191 109.908 152.984L109.949 153.002L110.084 154.432ZM110.863 151.971C110.863 151.541 110.936 151.131 111.08 150.74C111.229 150.346 111.439 150.002 111.713 149.709C112.311 149.076 113.086 148.76 114.039 148.76C114.988 148.76 115.742 149.059 116.301 149.656C116.836 150.227 117.104 150.967 117.104 151.877C117.104 152.787 116.828 153.541 116.277 154.139C115.695 154.771 114.924 155.088 113.963 155.088C112.971 155.088 112.193 154.777 111.631 154.156C111.119 153.59 110.863 152.861 110.863 151.971ZM112.287 151.936C112.287 152.182 112.328 152.42 112.41 152.65C112.492 152.881 112.609 153.078 112.762 153.242C113.086 153.598 113.512 153.775 114.039 153.775C114.527 153.775 114.912 153.602 115.193 153.254C115.467 152.918 115.604 152.48 115.604 151.941C115.604 151.395 115.463 150.953 115.182 150.617C114.881 150.258 114.469 150.078 113.945 150.078C113.414 150.078 112.998 150.27 112.697 150.652C112.424 151.004 112.287 151.432 112.287 151.936ZM119.91 153.307C119.91 154.186 119.926 154.75 119.957 155H118.428V148.877H119.91V149.404C120.445 148.975 120.994 148.76 121.557 148.76C122.221 148.76 122.703 149.047 123.004 149.621C123.305 149.312 123.555 149.109 123.754 149.012C124.086 148.844 124.418 148.76 124.75 148.76C125.086 148.76 125.371 148.816 125.605 148.93C125.84 149.043 126.033 149.203 126.186 149.41C126.494 149.828 126.648 150.402 126.648 151.133V153.465C126.648 154.125 126.658 154.521 126.678 154.654C126.697 154.787 126.723 154.873 126.754 154.912C126.789 154.951 126.818 154.986 126.842 155.018L126.83 155.041C126.518 155.014 126.287 155 126.139 155H125.699C125.555 155 125.377 155.006 125.166 155.018V151.848C125.166 150.934 125.025 150.391 124.744 150.219C124.65 150.164 124.539 150.137 124.41 150.137C124.285 150.137 124.174 150.152 124.076 150.184C123.979 150.211 123.887 150.258 123.801 150.324C123.656 150.43 123.492 150.637 123.309 150.945C123.312 150.977 123.314 151.008 123.314 151.039C123.314 151.07 123.314 151.586 123.314 152.586C123.314 153.586 123.338 154.391 123.385 155C123.053 155 122.77 155 122.535 155C122.305 155 122.084 155.006 121.873 155.018V151.842C121.873 151.205 121.834 150.791 121.756 150.6C121.682 150.408 121.602 150.283 121.516 150.225C121.43 150.166 121.324 150.137 121.199 150.137C120.684 150.137 120.254 150.385 119.91 150.881V153.307ZM129.93 153.307C129.93 154.186 129.945 154.75 129.977 155H128.447V148.877H129.93V149.404C130.465 148.975 131.014 148.76 131.576 148.76C132.24 148.76 132.723 149.047 133.023 149.621C133.324 149.312 133.574 149.109 133.773 149.012C134.105 148.844 134.438 148.76 134.77 148.76C135.105 148.76 135.391 148.816 135.625 148.93C135.859 149.043 136.053 149.203 136.205 149.41C136.514 149.828 136.668 150.402 136.668 151.133V153.465C136.668 154.125 136.678 154.521 136.697 154.654C136.717 154.787 136.742 154.873 136.773 154.912C136.809 154.951 136.838 154.986 136.861 155.018L136.85 155.041C136.537 155.014 136.307 155 136.158 155H135.719C135.574 155 135.396 155.006 135.186 155.018V151.848C135.186 150.934 135.045 150.391 134.764 150.219C134.67 150.164 134.559 150.137 134.43 150.137C134.305 150.137 134.193 150.152 134.096 150.184C133.998 150.211 133.906 150.258 133.82 150.324C133.676 150.43 133.512 150.637 133.328 150.945C133.332 150.977 133.334 151.008 133.334 151.039C133.334 151.07 133.334 151.586 133.334 152.586C133.334 153.586 133.357 154.391 133.404 155C133.072 155 132.789 155 132.555 155C132.324 155 132.104 155.006 131.893 155.018V151.842C131.893 151.205 131.854 150.791 131.775 150.6C131.701 150.408 131.621 150.283 131.535 150.225C131.449 150.166 131.344 150.137 131.219 150.137C130.703 150.137 130.273 150.385 129.93 150.881V153.307ZM138.074 151.988C138.074 151.531 138.152 151.107 138.309 150.717C138.465 150.326 138.686 149.984 138.971 149.691C139.58 149.07 140.377 148.76 141.361 148.76C142.193 148.76 142.861 149.035 143.365 149.586C143.861 150.117 144.109 150.785 144.109 151.59C144.109 151.898 144.086 152.109 144.039 152.223C143.648 152.332 142.854 152.387 141.654 152.387H139.592C139.693 152.805 139.93 153.131 140.301 153.365C140.672 153.596 141.154 153.711 141.748 153.711C142.369 153.711 142.902 153.6 143.348 153.377C143.465 153.318 143.553 153.264 143.611 153.213C143.604 153.377 143.594 153.545 143.582 153.717L143.518 154.631C143.221 154.834 142.74 154.975 142.076 155.053C141.881 155.076 141.693 155.088 141.514 155.088C140.521 155.088 139.701 154.799 139.053 154.221C138.4 153.639 138.074 152.895 138.074 151.988ZM142.551 151.25C142.391 150.41 141.934 149.99 141.18 149.99C140.586 149.99 140.135 150.246 139.826 150.758C139.732 150.914 139.66 151.086 139.609 151.273C139.703 151.277 139.818 151.281 139.955 151.285H140.389C140.533 151.289 140.672 151.291 140.805 151.291H141.139C141.338 151.291 141.533 151.289 141.725 151.285L142.205 151.268C142.334 151.264 142.449 151.258 142.551 151.25ZM146.77 154.344C146.77 154.68 146.777 154.898 146.793 155H145.334V148.877H146.77V149.328C147.102 148.949 147.449 148.76 147.812 148.76C148.18 148.76 148.469 148.805 148.68 148.895L148.574 150.471L148.551 150.488C148.414 150.246 148.131 150.125 147.701 150.125C147.537 150.125 147.369 150.182 147.197 150.295C147.029 150.404 146.887 150.551 146.77 150.734V154.344ZM154.182 154.432C153.744 154.869 153.059 155.088 152.125 155.088C151.219 155.088 150.479 154.812 149.904 154.262C149.322 153.703 149.031 152.961 149.031 152.035C149.031 151.094 149.318 150.32 149.893 149.715C150.502 149.078 151.316 148.76 152.336 148.76C153.059 148.76 153.664 148.918 154.152 149.234L153.918 150.734L153.877 150.729C153.689 150.502 153.492 150.354 153.285 150.283C152.949 150.166 152.613 150.107 152.277 150.107C151.941 150.107 151.678 150.15 151.486 150.236C151.295 150.322 151.131 150.441 150.994 150.594C150.721 150.906 150.584 151.32 150.584 151.836C150.584 152.75 150.9 153.348 151.533 153.629C151.752 153.723 151.982 153.77 152.225 153.77C152.471 153.77 152.684 153.748 152.863 153.705C153.047 153.662 153.213 153.604 153.361 153.529C153.678 153.373 153.893 153.191 154.006 152.984L154.047 153.002L154.182 154.432ZM155.219 147.131C155.531 146.643 155.857 146.213 156.197 145.842L157.457 146.832C157.289 147.039 157.133 147.242 156.988 147.441C156.988 147.441 156.838 147.654 156.537 148.08L155.219 147.131ZM156.76 154.344C156.76 154.68 156.768 154.898 156.783 155H155.295V148.877H156.76V154.344ZM162.461 154.637C161.906 154.938 161.404 155.088 160.955 155.088C160.506 155.088 160.121 155.047 159.801 154.965C159.48 154.879 159.209 154.754 158.986 154.59C158.533 154.258 158.307 153.777 158.307 153.148C158.307 152.586 158.584 152.117 159.139 151.742C159.74 151.336 160.557 151.133 161.588 151.133L161.822 151.139C161.869 151.143 161.922 151.146 161.98 151.15C162.039 151.15 162.092 151.154 162.139 151.162C162.107 150.537 161.838 150.172 161.33 150.066C161.162 150.031 160.982 150.014 160.791 150.014C160.604 150.014 160.418 150.031 160.234 150.066C160.055 150.098 159.879 150.141 159.707 150.195C159.328 150.316 159.057 150.455 158.893 150.611L158.875 150.6L158.699 149.305C159.391 148.941 160.146 148.76 160.967 148.76C162.24 148.76 163.055 149.219 163.41 150.137C163.523 150.43 163.58 150.76 163.58 151.127V153.248C163.58 153.701 163.74 154.01 164.061 154.174L163 155.146C162.777 155.029 162.598 154.859 162.461 154.637ZM162.145 152.217C162.039 152.197 161.93 152.188 161.816 152.188H161.582C160.719 152.188 160.17 152.379 159.936 152.762C159.865 152.875 159.83 152.994 159.83 153.119C159.83 153.244 159.852 153.355 159.895 153.453C159.941 153.547 160.018 153.625 160.123 153.688C160.326 153.805 160.627 153.863 161.025 153.863C161.428 153.863 161.803 153.768 162.15 153.576C162.146 153.533 162.145 153.488 162.145 153.441V152.217ZM166.773 154.344C166.773 154.68 166.781 154.898 166.797 155H165.309V146.27H166.773V154.344Z" fill="white"/>
<path d="M212.127 154.432C211.689 154.869 211.004 155.088 210.07 155.088C209.164 155.088 208.424 154.812 207.85 154.262C207.268 153.703 206.977 152.961 206.977 152.035C206.977 151.094 207.264 150.32 207.838 149.715C208.447 149.078 209.262 148.76 210.281 148.76C211.004 148.76 211.609 148.918 212.098 149.234L211.863 150.734L211.822 150.729C211.635 150.502 211.438 150.354 211.23 150.283C210.895 150.166 210.559 150.107 210.223 150.107C209.887 150.107 209.623 150.15 209.432 150.236C209.24 150.322 209.076 150.441 208.939 150.594C208.666 150.906 208.529 151.32 208.529 151.836C208.529 152.75 208.846 153.348 209.479 153.629C209.697 153.723 209.928 153.77 210.17 153.77C210.416 153.77 210.629 153.748 210.809 153.705C210.992 153.662 211.158 153.604 211.307 153.529C211.623 153.373 211.838 153.191 211.951 152.984L211.992 153.002L212.127 154.432ZM217.395 154.637C216.84 154.938 216.338 155.088 215.889 155.088C215.439 155.088 215.055 155.047 214.734 154.965C214.414 154.879 214.143 154.754 213.92 154.59C213.467 154.258 213.24 153.777 213.24 153.148C213.24 152.586 213.518 152.117 214.072 151.742C214.674 151.336 215.49 151.133 216.521 151.133L216.756 151.139C216.803 151.143 216.855 151.146 216.914 151.15C216.973 151.15 217.025 151.154 217.072 151.162C217.041 150.537 216.771 150.172 216.264 150.066C216.096 150.031 215.916 150.014 215.725 150.014C215.537 150.014 215.352 150.031 215.168 150.066C214.988 150.098 214.812 150.141 214.641 150.195C214.262 150.316 213.99 150.455 213.826 150.611L213.809 150.6L213.633 149.305C214.324 148.941 215.08 148.76 215.9 148.76C217.174 148.76 217.988 149.219 218.344 150.137C218.457 150.43 218.514 150.76 218.514 151.127V153.248C218.514 153.701 218.674 154.01 218.994 154.174L217.934 155.146C217.711 155.029 217.531 154.859 217.395 154.637ZM217.078 152.217C216.973 152.197 216.863 152.188 216.75 152.188H216.516C215.652 152.188 215.104 152.379 214.869 152.762C214.799 152.875 214.764 152.994 214.764 153.119C214.764 153.244 214.785 153.355 214.828 153.453C214.875 153.547 214.951 153.625 215.057 153.688C215.26 153.805 215.561 153.863 215.959 153.863C216.361 153.863 216.736 153.768 217.084 153.576C217.08 153.533 217.078 153.488 217.078 153.441V152.217ZM221.73 154.344C221.73 154.68 221.738 154.898 221.754 155H220.295V148.877H221.73V149.328C222.062 148.949 222.41 148.76 222.773 148.76C223.141 148.76 223.43 148.805 223.641 148.895L223.535 150.471L223.512 150.488C223.375 150.246 223.092 150.125 222.662 150.125C222.498 150.125 222.33 150.182 222.158 150.295C221.99 150.404 221.848 150.551 221.73 150.734V154.344ZM228.398 154.637C227.844 154.938 227.342 155.088 226.893 155.088C226.443 155.088 226.059 155.047 225.738 154.965C225.418 154.879 225.146 154.754 224.924 154.59C224.471 154.258 224.244 153.777 224.244 153.148C224.244 152.586 224.521 152.117 225.076 151.742C225.678 151.336 226.494 151.133 227.525 151.133L227.76 151.139C227.807 151.143 227.859 151.146 227.918 151.15C227.977 151.15 228.029 151.154 228.076 151.162C228.045 150.537 227.775 150.172 227.268 150.066C227.1 150.031 226.92 150.014 226.729 150.014C226.541 150.014 226.355 150.031 226.172 150.066C225.992 150.098 225.816 150.141 225.645 150.195C225.266 150.316 224.994 150.455 224.83 150.611L224.812 150.6L224.637 149.305C225.328 148.941 226.084 148.76 226.904 148.76C228.178 148.76 228.992 149.219 229.348 150.137C229.461 150.43 229.518 150.76 229.518 151.127V153.248C229.518 153.701 229.678 154.01 229.998 154.174L228.938 155.146C228.715 155.029 228.535 154.859 228.398 154.637ZM228.082 152.217C227.977 152.197 227.867 152.188 227.754 152.188H227.52C226.656 152.188 226.107 152.379 225.873 152.762C225.803 152.875 225.768 152.994 225.768 153.119C225.768 153.244 225.789 153.355 225.832 153.453C225.879 153.547 225.955 153.625 226.061 153.688C226.264 153.805 226.564 153.863 226.963 153.863C227.365 153.863 227.74 153.768 228.088 153.576C228.084 153.533 228.082 153.488 228.082 153.441V152.217ZM236.139 154.432C235.701 154.869 235.016 155.088 234.082 155.088C233.176 155.088 232.436 154.812 231.861 154.262C231.279 153.703 230.988 152.961 230.988 152.035C230.988 151.094 231.275 150.32 231.85 149.715C232.459 149.078 233.273 148.76 234.293 148.76C235.016 148.76 235.621 148.918 236.109 149.234L235.875 150.734L235.834 150.729C235.646 150.502 235.449 150.354 235.242 150.283C234.906 150.166 234.57 150.107 234.234 150.107C233.898 150.107 233.635 150.15 233.443 150.236C233.252 150.322 233.088 150.441 232.951 150.594C232.678 150.906 232.541 151.32 232.541 151.836C232.541 152.75 232.857 153.348 233.49 153.629C233.709 153.723 233.939 153.77 234.182 153.77C234.428 153.77 234.641 153.748 234.82 153.705C235.004 153.662 235.17 153.604 235.318 153.529C235.635 153.373 235.85 153.191 235.963 152.984L236.004 153.002L236.139 154.432ZM240.082 153.711C240.586 153.711 240.932 153.58 241.119 153.318H241.166L241.184 154.678C240.992 154.869 240.637 154.996 240.117 155.059C239.977 155.078 239.801 155.088 239.59 155.088C239.383 155.088 239.156 155.049 238.91 154.971C238.668 154.893 238.461 154.766 238.289 154.59C237.934 154.227 237.756 153.658 237.756 152.885V150.225H236.871C236.867 150.111 236.865 149.996 236.865 149.879V148.977C236.865 148.91 236.867 148.877 236.871 148.877H237.756V147.207H239.191V148.877H240.803V150.225H239.191V152.615C239.191 153.229 239.361 153.578 239.701 153.664C239.811 153.695 239.938 153.711 240.082 153.711ZM242.156 155C242.191 154.762 242.209 154.551 242.209 154.367C242.209 154.184 242.207 154.059 242.203 153.992C242.203 153.922 242.201 153.854 242.197 153.787C242.193 153.721 242.189 153.658 242.186 153.6L242.168 153.453H243.867C243.855 153.602 243.85 153.723 243.85 153.816L243.838 154.062C243.838 154.137 243.838 154.277 243.838 154.484C243.838 154.688 243.848 154.859 243.867 155H242.156ZM252.07 153.711C252.574 153.711 252.92 153.58 253.107 153.318H253.154L253.172 154.678C252.98 154.869 252.625 154.996 252.105 155.059C251.965 155.078 251.789 155.088 251.578 155.088C251.371 155.088 251.145 155.049 250.898 154.971C250.656 154.893 250.449 154.766 250.277 154.59C249.922 154.227 249.744 153.658 249.744 152.885V150.225H248.859C248.855 150.111 248.854 149.996 248.854 149.879V148.977C248.854 148.91 248.855 148.877 248.859 148.877H249.744V147.207H251.18V148.877H252.791V150.225H251.18V152.615C251.18 153.229 251.35 153.578 251.689 153.664C251.799 153.695 251.926 153.711 252.07 153.711ZM254.074 151.988C254.074 151.531 254.152 151.107 254.309 150.717C254.465 150.326 254.686 149.984 254.971 149.691C255.58 149.07 256.377 148.76 257.361 148.76C258.193 148.76 258.861 149.035 259.365 149.586C259.861 150.117 260.109 150.785 260.109 151.59C260.109 151.898 260.086 152.109 260.039 152.223C259.648 152.332 258.854 152.387 257.654 152.387H255.592C255.693 152.805 255.93 153.131 256.301 153.365C256.672 153.596 257.154 153.711 257.748 153.711C258.369 153.711 258.902 153.6 259.348 153.377C259.465 153.318 259.553 153.264 259.611 153.213C259.604 153.377 259.594 153.545 259.582 153.717L259.518 154.631C259.221 154.834 258.74 154.975 258.076 155.053C257.881 155.076 257.693 155.088 257.514 155.088C256.521 155.088 255.701 154.799 255.053 154.221C254.4 153.639 254.074 152.895 254.074 151.988ZM258.551 151.25C258.391 150.41 257.934 149.99 257.18 149.99C256.586 149.99 256.135 150.246 255.826 150.758C255.732 150.914 255.66 151.086 255.609 151.273C255.703 151.277 255.818 151.281 255.955 151.285H256.389C256.533 151.289 256.672 151.291 256.805 151.291H257.139C257.338 151.291 257.533 151.289 257.725 151.285L258.205 151.268C258.334 151.264 258.449 151.258 258.551 151.25ZM266.174 154.432C265.736 154.869 265.051 155.088 264.117 155.088C263.211 155.088 262.471 154.812 261.896 154.262C261.314 153.703 261.023 152.961 261.023 152.035C261.023 151.094 261.311 150.32 261.885 149.715C262.494 149.078 263.309 148.76 264.328 148.76C265.051 148.76 265.656 148.918 266.145 149.234L265.91 150.734L265.869 150.729C265.682 150.502 265.484 150.354 265.277 150.283C264.941 150.166 264.605 150.107 264.27 150.107C263.934 150.107 263.67 150.15 263.479 150.236C263.287 150.322 263.123 150.441 262.986 150.594C262.713 150.906 262.576 151.32 262.576 151.836C262.576 152.75 262.893 153.348 263.525 153.629C263.744 153.723 263.975 153.77 264.217 153.77C264.463 153.77 264.676 153.748 264.855 153.705C265.039 153.662 265.205 153.604 265.354 153.529C265.67 153.373 265.885 153.191 265.998 152.984L266.039 153.002L266.174 154.432ZM268.986 154.344C268.986 154.68 268.994 154.898 269.01 155H267.551V146.621H268.986V149.334C269.49 148.951 270.01 148.76 270.545 148.76C271.201 148.76 271.729 148.977 272.127 149.41C272.518 149.844 272.713 150.418 272.713 151.133V153.465C272.713 154.125 272.723 154.521 272.742 154.654C272.762 154.787 272.787 154.873 272.818 154.912C272.854 154.951 272.883 154.986 272.906 155.018L272.895 155.041C272.578 155.014 272.348 155 272.203 155H271.787C271.658 155 271.488 155.006 271.277 155.018V151.625C271.277 151.086 271.158 150.688 270.92 150.43C270.74 150.234 270.496 150.137 270.188 150.137C269.73 150.137 269.33 150.4 268.986 150.928V154.344ZM274.172 155C274.207 154.762 274.225 154.551 274.225 154.367C274.225 154.184 274.223 154.059 274.219 153.992C274.219 153.922 274.217 153.854 274.213 153.787C274.209 153.721 274.205 153.658 274.201 153.6L274.184 153.453H275.883C275.871 153.602 275.865 153.723 275.865 153.816L275.854 154.062C275.854 154.137 275.854 154.277 275.854 154.484C275.854 154.688 275.863 154.859 275.883 155H274.172Z" fill="white"/>
<path d="M219.883 85.3066C219.883 86.1855 219.898 86.75 219.93 87H218.4V80.877H219.883V81.4043C220.418 80.9746 220.967 80.7598 221.529 80.7598C222.193 80.7598 222.676 81.0469 222.977 81.6211C223.277 81.3125 223.527 81.1094 223.727 81.0117C224.059 80.8438 224.391 80.7598 224.723 80.7598C225.059 80.7598 225.344 80.8164 225.578 80.9297C225.812 81.043 226.006 81.2031 226.158 81.4102C226.467 81.8281 226.621 82.4023 226.621 83.1328V85.4648C226.621 86.125 226.631 86.5215 226.65 86.6543C226.67 86.7871 226.695 86.873 226.727 86.9121C226.762 86.9512 226.791 86.9863 226.814 87.0176L226.803 87.041C226.49 87.0137 226.26 87 226.111 87H225.672C225.527 87 225.35 87.0059 225.139 87.0176V83.8477C225.139 82.9336 224.998 82.3906 224.717 82.2188C224.623 82.1641 224.512 82.1367 224.383 82.1367C224.258 82.1367 224.146 82.1523 224.049 82.1836C223.951 82.2109 223.859 82.2578 223.773 82.3242C223.629 82.4297 223.465 82.6367 223.281 82.9453C223.285 82.9766 223.287 83.0078 223.287 83.0391C223.287 83.0703 223.287 83.5859 223.287 84.5859C223.287 85.5859 223.311 86.3906 223.357 87C223.025 87 222.742 87 222.508 87C222.277 87 222.057 87.0059 221.846 87.0176V83.8418C221.846 83.2051 221.807 82.791 221.729 82.5996C221.654 82.4082 221.574 82.2832 221.488 82.2246C221.402 82.166 221.297 82.1367 221.172 82.1367C220.656 82.1367 220.227 82.3848 219.883 82.8809V85.3066ZM227.875 83.9707C227.875 83.541 227.947 83.1309 228.092 82.7402C228.24 82.3457 228.451 82.002 228.725 81.709C229.322 81.0762 230.098 80.7598 231.051 80.7598C232 80.7598 232.754 81.0586 233.312 81.6562C233.848 82.2266 234.115 82.9668 234.115 83.877C234.115 84.7871 233.84 85.541 233.289 86.1387C232.707 86.7715 231.936 87.0879 230.975 87.0879C229.982 87.0879 229.205 86.7773 228.643 86.1562C228.131 85.5898 227.875 84.8613 227.875 83.9707ZM229.299 83.9355C229.299 84.1816 229.34 84.4199 229.422 84.6504C229.504 84.8809 229.621 85.0781 229.773 85.2422C230.098 85.5977 230.523 85.7754 231.051 85.7754C231.539 85.7754 231.924 85.6016 232.205 85.2539C232.479 84.918 232.615 84.4805 232.615 83.9414C232.615 83.3945 232.475 82.9531 232.193 82.6172C231.893 82.2578 231.48 82.0781 230.957 82.0781C230.426 82.0781 230.01 82.2695 229.709 82.6523C229.436 83.0039 229.299 83.4316 229.299 83.9355ZM239.541 86.6719C239.045 86.9492 238.549 87.0879 238.053 87.0879C237.557 87.0879 237.123 87.0098 236.752 86.8535C236.381 86.6973 236.064 86.4824 235.803 86.209C235.264 85.6465 234.994 84.916 234.994 84.0176C234.994 83.0879 235.307 82.3145 235.932 81.6973C236.561 81.0723 237.365 80.7598 238.346 80.7598C238.646 80.7598 238.941 80.7988 239.23 80.877V78.2695H240.666V84.5332C240.666 85.0527 240.689 85.3926 240.736 85.5527C240.787 85.7129 240.842 85.8301 240.9 85.9043C240.963 85.9785 241.041 86.0488 241.135 86.1152L240.033 87.0879C239.83 86.9785 239.666 86.8398 239.541 86.6719ZM238.328 85.7402C238.656 85.7402 238.957 85.6777 239.23 85.5527V82.3066C238.957 82.1934 238.66 82.1367 238.34 82.1367C238.02 82.1367 237.744 82.1797 237.514 82.2656C237.287 82.3516 237.092 82.4707 236.928 82.623C236.584 82.9434 236.412 83.3594 236.412 83.8711C236.412 84.4297 236.568 84.875 236.881 85.207C237.217 85.5625 237.699 85.7402 238.328 85.7402ZM242.066 83.9883C242.066 83.5312 242.145 83.1074 242.301 82.7168C242.457 82.3262 242.678 81.9844 242.963 81.6914C243.572 81.0703 244.369 80.7598 245.354 80.7598C246.186 80.7598 246.854 81.0352 247.357 81.5859C247.854 82.1172 248.102 82.7852 248.102 83.5898C248.102 83.8984 248.078 84.1094 248.031 84.2227C247.641 84.332 246.846 84.3867 245.646 84.3867H243.584C243.686 84.8047 243.922 85.1309 244.293 85.3652C244.664 85.5957 245.146 85.7109 245.74 85.7109C246.361 85.7109 246.895 85.5996 247.34 85.377C247.457 85.3184 247.545 85.2637 247.604 85.2129C247.596 85.377 247.586 85.5449 247.574 85.7168L247.51 86.6309C247.213 86.834 246.732 86.9746 246.068 87.0527C245.873 87.0762 245.686 87.0879 245.506 87.0879C244.514 87.0879 243.693 86.7988 243.045 86.2207C242.393 85.6387 242.066 84.8945 242.066 83.9883ZM246.543 83.25C246.383 82.4102 245.926 81.9902 245.172 81.9902C244.578 81.9902 244.127 82.2461 243.818 82.7578C243.725 82.9141 243.652 83.0859 243.602 83.2734C243.695 83.2773 243.811 83.2812 243.947 83.2852H244.381C244.525 83.2891 244.664 83.291 244.797 83.291H245.131C245.33 83.291 245.525 83.2891 245.717 83.2852L246.197 83.2676C246.326 83.2637 246.441 83.2578 246.543 83.25ZM243.303 78.0938C243.967 78.1602 244.592 78.1934 245.178 78.1934L246.168 80.0273H244.844L243.309 78.1348L243.303 78.0938ZM250.738 86.3438C250.738 86.6797 250.746 86.8984 250.762 87H249.273V78.2695H250.738V86.3438ZM252.098 83.9883C252.098 83.5312 252.176 83.1074 252.332 82.7168C252.488 82.3262 252.709 81.9844 252.994 81.6914C253.604 81.0703 254.4 80.7598 255.385 80.7598C256.217 80.7598 256.885 81.0352 257.389 81.5859C257.885 82.1172 258.133 82.7852 258.133 83.5898C258.133 83.8984 258.109 84.1094 258.062 84.2227C257.672 84.332 256.877 84.3867 255.678 84.3867H253.615C253.717 84.8047 253.953 85.1309 254.324 85.3652C254.695 85.5957 255.178 85.7109 255.771 85.7109C256.393 85.7109 256.926 85.5996 257.371 85.377C257.488 85.3184 257.576 85.2637 257.635 85.2129C257.627 85.377 257.617 85.5449 257.605 85.7168L257.541 86.6309C257.244 86.834 256.764 86.9746 256.1 87.0527C255.904 87.0762 255.717 87.0879 255.537 87.0879C254.545 87.0879 253.725 86.7988 253.076 86.2207C252.424 85.6387 252.098 84.8945 252.098 83.9883ZM256.574 83.25C256.414 82.4102 255.957 81.9902 255.203 81.9902C254.609 81.9902 254.158 82.2461 253.85 82.7578C253.756 82.9141 253.684 83.0859 253.633 83.2734C253.727 83.2773 253.842 83.2812 253.979 83.2852H254.412C254.557 83.2891 254.695 83.291 254.828 83.291H255.162C255.361 83.291 255.557 83.2891 255.748 83.2852L256.229 83.2676C256.357 83.2637 256.473 83.2578 256.574 83.25ZM261.473 87.0879C260.371 87.0879 259.541 86.8867 258.982 86.4844C258.99 86.3672 259.002 86.2344 259.018 86.0859L259.07 85.6641C259.102 85.3867 259.121 85.2148 259.129 85.1484C259.137 85.0781 259.143 85.041 259.146 85.0371C259.15 85.0293 259.182 85.0605 259.24 85.1309C259.299 85.1973 259.41 85.2793 259.574 85.377C259.738 85.4746 259.928 85.5605 260.143 85.6348C260.607 85.7949 261.092 85.875 261.596 85.875C262.271 85.875 262.609 85.6504 262.609 85.2012C262.609 85.0566 262.545 84.9492 262.416 84.8789C262.186 84.7617 261.846 84.6738 261.396 84.6152C260.951 84.5527 260.586 84.4629 260.301 84.3457C260.016 84.2285 259.783 84.0879 259.604 83.9238C259.271 83.6152 259.105 83.2109 259.105 82.7109C259.105 82.1016 259.34 81.623 259.809 81.2754C260.273 80.9316 260.916 80.7598 261.736 80.7598C262.549 80.7598 263.242 80.9902 263.816 81.4512C263.789 81.5527 263.76 81.6504 263.729 81.7441C263.639 82.002 263.572 82.1875 263.529 82.3008L263.395 82.6465C263.387 82.6777 263.381 82.6934 263.377 82.6934C263.369 82.6934 263.338 82.6523 263.283 82.5703C263.037 82.2852 262.654 82.0977 262.135 82.0078C261.975 81.9766 261.811 81.9609 261.643 81.9609C260.932 81.9609 260.576 82.1758 260.576 82.6055C260.576 82.7539 260.65 82.8672 260.799 82.9453C261.076 83.0938 261.455 83.2031 261.936 83.2734C262.42 83.3438 262.787 83.4395 263.037 83.5605C263.287 83.6777 263.488 83.8203 263.641 83.9883C263.922 84.293 264.062 84.6973 264.062 85.2012C264.062 85.752 263.842 86.1992 263.4 86.543C262.939 86.9062 262.297 87.0879 261.473 87.0879Z" fill="white"/>
<line x1="134.5" y1="32" x2="134.5" y2="136" stroke="black" stroke-width="3"/>
<line x1="78" y1="84" x2="202" y2="84" stroke="black" stroke-width="2"/>
<line x1="31" y1="119" x2="238" y2="119" stroke="black" stroke-width="2"/>
<line x1="31.5" y1="119" x2="31.5" y2="136" stroke="black"/>
<line x1="237.5" y1="136" x2="237.5" y2="120" stroke="black"/>
</g>
<defs>
<clipPath id="clip0_1_5">
<rect width="279" height="168" fill="white"/>
</clipPath>
</defs>
</svg>
